<svg width="48" height="48" viewBox="0 0 48 48" fill="none" xmlns="http://www.w3.org/2000/svg">
<g clip-path="url(#clip0)">
<path d="M23 26L26 23C26.5523 22.4477 26.5523 21.5523 26 21V21C25.4477 20.4477 24.5523 20.4477 24 21L19 26C17.8954 27.1046 17.8954 28.8954 19 30V30C20.1046 31.1046 21.8954 31.1046 23 30L29 24C30.6569 22.3431 30.6569 19.6569 29 18V18C27.3431 16.3431 24.6569 16.3431 23 18L19 22" stroke="#161616"/>
</g>
<rect x="0.5" y="0.5" width="47" height="47" rx="23.5" stroke="#161616"/>
<defs>
<clipPath id="clip0">
<rect width="16" height="16" fill="white" transform="translate(16 16)"/>
</clipPath>
</defs>
</svg>
