<svg width="20" height="20" viewBox="0 0 20 20" fill="none" xmlns="http://www.w3.org/2000/svg">
<circle cx="10" cy="10" r="10" fill="#161616"/>
<path d="M9.15671 10.8397C9.76968 11.4746 10.5114 11.9649 11.3296 12.276L12.4367 11.3764C12.4695 11.3533 12.5084 11.341 12.5483 11.341C12.5881 11.341 12.627 11.3533 12.6598 11.3764L14.7153 12.7287C14.7934 12.7766 14.8594 12.8424 14.9083 12.9209C14.9571 12.9993 14.9875 13.0883 14.9969 13.1808C15.0063 13.2733 14.9945 13.3667 14.9624 13.4537C14.9304 13.5408 14.879 13.619 14.8122 13.6823L13.8491 14.6538C13.7112 14.7929 13.5416 14.8951 13.3556 14.9511C13.1696 15.007 12.973 15.0151 12.7832 14.9746C10.8898 14.5753 9.14471 13.6401 7.74724 12.276C6.38078 10.8982 5.43519 9.14516 5.02519 7.22945C4.98469 7.03864 4.99314 6.84038 5.04973 6.65388C5.10632 6.46738 5.20913 6.29898 5.34819 6.16498L6.34657 5.18147C6.40835 5.11663 6.4837 5.06692 6.56696 5.03603C6.65023 5.00515 6.73926 4.9939 6.82738 5.00313C6.91551 5.01236 7.00045 5.04183 7.07584 5.08933C7.15123 5.13683 7.21512 5.20113 7.26273 5.27742L8.63109 7.34939C8.6547 7.38193 8.66744 7.42135 8.66744 7.46184C8.66744 7.50233 8.6547 7.54175 8.63109 7.57428L7.72962 8.68073C8.04252 9.49961 8.53 10.2371 9.15671 10.8397Z" fill="white"/>
</svg>
