<svg width="215" height="41" viewBox="0 0 215 41" fill="none" xmlns="http://www.w3.org/2000/svg">
<rect x="96" y="31" width="10" height="10" fill="#FD1C30"/>
<path d="M100.102 25C100.781 25 101.416 24.8889 102.008 24.6667C102.6 24.4444 103.077 24.1111 103.44 23.6667C103.807 23.2222 103.99 22.6689 103.99 22.0067C103.99 21.5311 103.898 21.1378 103.715 20.8267C103.536 20.5111 103.304 20.2578 103.02 20.0667C102.74 19.8756 102.448 19.7267 102.146 19.62C101.847 19.5133 101.577 19.4289 101.334 19.3667L99.558 18.8867C99.3378 18.8289 99.1176 18.7578 98.8974 18.6733C98.6771 18.5844 98.4936 18.4667 98.3468 18.32C98.2 18.1689 98.1266 17.9756 98.1266 17.74C98.1266 17.4911 98.2114 17.2733 98.3812 17.0867C98.5555 16.9 98.7827 16.7556 99.0625 16.6533C99.347 16.5511 99.6544 16.5044 99.9847 16.5133C100.494 16.5267 100.953 16.6711 101.361 16.9467C101.769 17.2222 102.026 17.6133 102.132 18.12L103.914 17.82C103.694 16.9311 103.242 16.2444 102.559 15.76C101.875 15.2711 101.024 15.0222 100.005 15.0133C99.3355 15.0089 98.7253 15.1133 98.1747 15.3267C97.6288 15.5356 97.1929 15.8489 96.8671 16.2667C96.546 16.6844 96.3854 17.2022 96.3854 17.82C96.3854 18.2422 96.4565 18.5978 96.5987 18.8867C96.7456 19.1711 96.9314 19.4044 97.1562 19.5867C97.3856 19.7689 97.6265 19.9133 97.8788 20.02C98.1357 20.1267 98.3743 20.2111 98.5945 20.2733L101.155 21.0067C101.889 21.22 102.256 21.5889 102.256 22.1133C102.256 22.4067 102.157 22.6578 101.96 22.8667C101.767 23.0711 101.515 23.2267 101.203 23.3333C100.891 23.44 100.558 23.4933 100.205 23.4933C99.6085 23.4933 99.0809 23.3378 98.6221 23.0267C98.1679 22.7156 97.8673 22.2756 97.7205 21.7067L96 21.96C96.1055 22.5867 96.3441 23.1289 96.7157 23.5867C97.092 24.04 97.5691 24.3889 98.1472 24.6333C98.7299 24.8778 99.3814 25 100.102 25Z" fill="#161616"/>
<path d="M109.827 24.8H111.486V16.7067H114.693V15.2H106.62V16.7067H109.827V24.8Z" fill="#161616"/>
<path d="M121.751 25C122.54 25 123.233 24.8444 123.83 24.5333C124.431 24.2222 124.899 23.7844 125.233 23.22C125.573 22.6556 125.743 21.9933 125.743 21.2333V15.2H124.064V21.1933C124.064 21.6689 123.956 22.0778 123.74 22.42C123.529 22.7622 123.247 23.0267 122.894 23.2133C122.545 23.3956 122.164 23.4867 121.751 23.4867C121.352 23.4867 120.976 23.3956 120.622 23.2133C120.269 23.0311 119.982 22.7689 119.762 22.4267C119.547 22.0844 119.439 21.6733 119.439 21.1933V15.2L117.76 15.2133V21.2333C117.76 21.9933 117.927 22.6556 118.262 23.22C118.601 23.7844 119.072 24.2222 119.673 24.5333C120.274 24.8444 120.967 25 121.751 25Z" fill="#161616"/>
<path d="M129.632 24.8H132.791C132.869 24.8 133.032 24.7978 133.28 24.7933C133.532 24.7889 133.771 24.7733 133.996 24.7467C134.785 24.6489 135.45 24.38 135.991 23.94C136.533 23.4956 136.943 22.9311 137.223 22.2467C137.503 21.5622 137.643 20.8133 137.643 20C137.643 19.1867 137.503 18.4378 137.223 17.7533C136.943 17.0689 136.533 16.5044 135.991 16.06C135.45 15.6156 134.785 15.3467 133.996 15.2533C133.766 15.2267 133.528 15.2111 133.28 15.2067C133.037 15.2022 132.874 15.2 132.791 15.2H129.632V24.8ZM131.318 23.2867V16.7133H132.791C132.929 16.7133 133.103 16.7178 133.314 16.7267C133.525 16.7311 133.716 16.7511 133.885 16.7867C134.344 16.8711 134.72 17.0689 135.014 17.38C135.308 17.6911 135.526 18.0756 135.668 18.5333C135.815 18.9867 135.888 19.4756 135.888 20C135.888 20.5022 135.819 20.9822 135.682 21.44C135.544 21.8978 135.326 22.2867 135.028 22.6067C134.734 22.9222 134.353 23.1244 133.885 23.2133C133.716 23.2444 133.525 23.2644 133.314 23.2733C133.103 23.2822 132.929 23.2867 132.791 23.2867H131.318Z" fill="#161616"/>
<path d="M141.374 24.8H143.032V15.2H141.374V24.8Z" fill="#161616"/>
<path d="M151.251 25C152.242 25 153.091 24.7911 153.798 24.3733C154.509 23.9511 155.053 23.3644 155.429 22.6133C155.81 21.8622 156 20.9911 156 20C156 19.0044 155.81 18.1333 155.429 17.3867C155.053 16.6356 154.509 16.0511 153.798 15.6333C153.091 15.2111 152.242 15 151.251 15C150.265 15 149.416 15.2111 148.705 15.6333C147.998 16.0511 147.455 16.6356 147.074 17.3867C146.698 18.1333 146.51 19.0044 146.51 20C146.51 20.9911 146.698 21.8622 147.074 22.6133C147.455 23.3644 147.998 23.9511 148.705 24.3733C149.416 24.7911 150.265 25 151.251 25ZM151.251 23.4867C150.256 23.4733 149.508 23.1511 149.008 22.52C148.508 21.8889 148.26 21.0489 148.265 20C148.269 19.2978 148.382 18.6844 148.602 18.16C148.822 17.6356 149.152 17.2289 149.593 16.94C150.033 16.6467 150.586 16.5044 151.251 16.5133C152.252 16.5267 152.999 16.8489 153.495 17.48C153.995 18.1111 154.245 18.9511 154.245 20C154.245 20.6978 154.133 21.3111 153.908 21.84C153.688 22.3644 153.355 22.7711 152.91 23.06C152.47 23.3489 151.917 23.4911 151.251 23.4867Z" fill="#161616"/>
<path d="M96 9.8H99.2034C99.2825 9.8 99.4477 9.79778 99.699 9.79333C99.9549 9.78889 100.197 9.77333 100.425 9.74667C101.225 9.64889 101.9 9.38 102.449 8.94C102.998 8.49556 103.414 7.93111 103.698 7.24667C103.982 6.56222 104.124 5.81333 104.124 5C104.124 4.18667 103.982 3.43778 103.698 2.75333C103.414 2.06889 102.998 1.50444 102.449 1.06C101.9 0.615555 101.225 0.346667 100.425 0.253333C100.192 0.226666 99.9502 0.211111 99.699 0.206667C99.4524 0.202222 99.2872 0.2 99.2034 0.2H96V9.8ZM97.7099 8.28667V1.71333H99.2034C99.343 1.71333 99.5198 1.71778 99.7338 1.72667C99.9479 1.73111 100.141 1.75111 100.313 1.78667C100.778 1.87111 101.16 2.06889 101.458 2.38C101.755 2.69111 101.976 3.07556 102.121 3.53333C102.27 3.98667 102.344 4.47556 102.344 5C102.344 5.50222 102.274 5.98222 102.135 6.44C101.995 6.89778 101.774 7.28667 101.472 7.60667C101.174 7.92222 100.788 8.12444 100.313 8.21333C100.141 8.24444 99.9479 8.26444 99.7338 8.27333C99.5198 8.28222 99.343 8.28667 99.2034 8.28667H97.7099Z" fill="#161616"/>
<path d="M107.768 9.8H114.258V8.29333H109.45V5.58H113.421V4.07333H109.45V1.70667H114.258V0.2H107.768V9.8Z" fill="#161616"/>
<path d="M120.188 9.8H122.652L125.82 0.2H124.089L121.402 8.24L118.75 0.2H117.019L120.188 9.8Z" fill="#161616"/>
<path d="M128.863 9.8H135.353V8.29333H130.545V5.58H134.516V4.07333H130.545V1.70667H135.353V0.2H128.863V9.8Z" fill="#161616"/>
<path d="M139.161 9.8H145.282V8.29333H140.843V0.2H139.161V9.8Z" fill="#161616"/>
<path d="M152.436 10C153.441 10 154.302 9.79111 155.019 9.37333C155.74 8.95111 156.291 8.36444 156.673 7.61333C157.059 6.86222 157.252 5.99111 157.252 5C157.252 4.00444 157.059 3.13333 156.673 2.38667C156.291 1.63556 155.74 1.05111 155.019 0.633332C154.302 0.211111 153.441 0 152.436 0C151.436 0 150.575 0.211111 149.854 0.633332C149.137 1.05111 148.586 1.63556 148.2 2.38667C147.818 3.13333 147.628 4.00444 147.628 5C147.628 5.99111 147.818 6.86222 148.2 7.61333C148.586 8.36444 149.137 8.95111 149.854 9.37333C150.575 9.79111 151.436 10 152.436 10ZM152.436 8.48667C151.427 8.47333 150.668 8.15111 150.161 7.52C149.654 6.88889 149.403 6.04889 149.407 5C149.412 4.29778 149.526 3.68444 149.749 3.16C149.973 2.63556 150.308 2.22889 150.754 1.94C151.201 1.64667 151.762 1.50444 152.436 1.51333C153.451 1.52667 154.209 1.84889 154.711 2.48C155.219 3.11111 155.472 3.95111 155.472 5C155.472 5.69778 155.358 6.31111 155.13 6.84C154.907 7.36444 154.57 7.77111 154.118 8.06C153.672 8.34889 153.111 8.49111 152.436 8.48667Z" fill="#161616"/>
<path d="M160.635 9.8H162.317V6.44667H164.788C164.881 6.44667 165.004 6.44222 165.158 6.43333C165.316 6.42444 165.46 6.41111 165.59 6.39333C166.456 6.26444 167.098 5.92 167.517 5.36C167.94 4.79556 168.152 4.11778 168.152 3.32667C168.152 2.53111 167.942 1.85333 167.524 1.29333C167.109 0.728888 166.465 0.382222 165.59 0.253333C165.46 0.231111 165.318 0.217778 165.165 0.213333C165.011 0.204444 164.885 0.2 164.788 0.2H160.635V9.8ZM162.317 4.94667V1.70667H164.718C164.811 1.70667 164.916 1.71111 165.032 1.72C165.148 1.72889 165.255 1.74444 165.353 1.76667C165.632 1.83333 165.851 1.95333 166.009 2.12667C166.172 2.29556 166.286 2.48667 166.351 2.7C166.421 2.91333 166.456 3.12222 166.456 3.32667C166.456 3.53111 166.421 3.74 166.351 3.95333C166.286 4.16667 166.172 4.35778 166.009 4.52667C165.851 4.69556 165.632 4.81333 165.353 4.88C165.255 4.90667 165.148 4.92444 165.032 4.93333C164.916 4.94222 164.811 4.94667 164.718 4.94667H162.317Z" fill="#161616"/>
<path d="M171.544 9.8H173.121V3.64667L176.199 9.8H176.869L179.954 3.64667V9.8H181.524V0.2H180.01L176.534 7L173.058 0.2H171.544V9.8Z" fill="#161616"/>
<path d="M185.479 9.8H191.969V8.29333H187.161V5.58H191.132V4.07333H187.161V1.70667H191.969V0.2H185.479V9.8Z" fill="#161616"/>
<path d="M195.638 9.8H197.341V3.03333L202.003 9.8H203.706V0.2H202.003V6.96667L197.341 0.2H195.638V9.8Z" fill="#161616"/>
<path d="M210.066 9.8H211.748V1.70667H215V0.2H206.813V1.70667H210.066V9.8Z" fill="#161616"/>
<path fill-rule="evenodd" clip-rule="evenodd" d="M5.88236 0H0V41H5.88236V23.3472H11.7647L22.9412 34.0243V41H28.8235V32.1736L17.0588 20.5L28.8235 8.25694V0H22.9412V6.54861L11.7647 17.6528H5.88236V0ZM42.9412 0H37.0588V41H42.9412V0ZM50.2941 0H80V5.69444H68.2353V41H62.3529V5.69444H50.2941V0Z" fill="#161616"/>
</svg>
